<svg width="75" height="75" viewBox="0 0 75 75" fill="none" xmlns="http://www.w3.org/2000/svg">
<rect x="0.552734" y="0.552246" width="73.56" height="73.56" rx="14.6642" fill="#49379C"/>
<path fill-rule="evenodd" clip-rule="evenodd" d="M17.333 30.3326C17.333 23.1529 23.1533 17.3326 30.333 17.3326H44.333C51.5127 17.3326 57.333 23.1529 57.333 30.3326L57.333 44.3326C57.333 51.5123 51.5127 57.3326 44.333 57.3326L30.333 57.3326C23.1533 57.3326 17.333 51.5123 17.333 44.3326V30.3326ZM46.9194 23.9749C47.5814 23.6741 48.333 24.1582 48.333 24.8854V37.1451C48.333 37.5373 48.1037 37.8933 47.7467 38.0556L39.7467 41.6904C39.0846 41.9912 38.333 41.5071 38.333 40.7799V28.5202C38.333 28.128 38.5623 27.772 38.9194 27.6097L46.9194 23.9749ZM27.7594 24.0051C27.0961 23.6924 26.333 24.1763 26.333 24.9096L26.333 47.9842C26.333 48.3714 26.5564 48.7237 26.9066 48.8888L34.9066 52.6602C35.5699 52.9729 36.333 52.489 36.333 51.7557L36.333 28.6811C36.333 28.2939 36.1096 27.9416 35.7594 27.7765L27.7594 24.0051Z" fill="#FCFCFC"/>
</svg>
