<svg width="76" height="75" viewBox="0 0 76 75" fill="none" xmlns="http://www.w3.org/2000/svg">
<rect x="1.05273" y="0.552246" width="73.89" height="73.89" rx="14.6642" fill="#30C084"/>
<g clip-path="url(#clip0_55_212)">
<path d="M22.8738 22.3731L53.1213 22.3731C53.567 22.3731 53.9944 22.5501 54.3095 22.8653C54.6247 23.1804 54.8017 23.6078 54.8017 24.0535L54.8017 50.9402C54.8017 51.3858 54.6247 51.8132 54.3095 52.1284C53.9944 52.4435 53.567 52.6206 53.1213 52.6206H22.8738C22.4281 52.6206 22.0007 52.4435 21.6855 52.1284C21.3704 51.8132 21.1934 51.3858 21.1934 50.9402L21.1934 24.0535C21.1934 23.6078 21.3704 23.1804 21.6855 22.8653C22.0007 22.5501 22.4281 22.3731 22.8738 22.3731ZM51.4409 35.8164L24.5542 35.8164V49.2597H51.4409V35.8164ZM51.4409 32.4556V25.7339L24.5542 25.7339V32.4556L51.4409 32.4556ZM41.3584 42.5381H48.08V45.8989H41.3584V42.5381Z" fill="#FCFCFC"/>
</g>
<defs>
<clipPath id="clip0_55_212">
<rect width="40.33" height="40.33" fill="white" transform="translate(17.833 17.3322)"/>
</clipPath>
</defs>
</svg>
