<svg width="75" height="75" viewBox="0 0 75 75" fill="none" xmlns="http://www.w3.org/2000/svg">
<rect x="0.552734" y="0.552246" width="73.56" height="73.56" rx="14.6642" fill="#E5A7E0"/>
<g clip-path="url(#clip0_55_230)">
<path d="M50.6667 20.6648C51.9928 20.6648 53.2645 21.1916 54.2022 22.1293C55.1399 23.0669 55.6667 24.3387 55.6667 25.6648V28.9981H52.3333L52.3333 48.9981C52.3333 50.3242 51.8066 51.596 50.8689 52.5337C49.9312 53.4713 48.6594 53.9981 47.3333 53.9981L24 53.9981C22.6739 53.9981 21.4021 53.4713 20.4645 52.5337C19.5268 51.596 19 50.3242 19 48.9981V45.6648H45.6667V48.9981C45.6667 49.4063 45.8166 49.8004 46.0879 50.1054C46.3591 50.4105 46.7329 50.6054 47.1383 50.6531L47.3333 50.6648C47.7416 50.6647 48.1356 50.5149 48.4406 50.2436C48.7457 49.9723 48.9406 49.5985 48.9883 49.1931L49 48.9981V23.9981L27.3333 23.9981C26.9251 23.9982 26.5311 24.1481 26.226 24.4193C25.921 24.6906 25.7261 25.0644 25.6783 25.4698L25.6667 25.6648L25.6667 42.3315H22.3333L22.3333 25.6648C22.3333 24.3387 22.8601 23.0669 23.7978 22.1293C24.7355 21.1916 26.0073 20.6648 27.3333 20.6648L50.6667 20.6648Z" fill="#FCFCFC"/>
</g>
<defs>
<clipPath id="clip0_55_230">
<rect width="40" height="40" fill="white" transform="translate(17.333 17.3322)"/>
</clipPath>
</defs>
</svg>
